HIERARCHY
ROOT hip
{
	OFFSET 0.000000 0.000000 0.000000 
	CHANNELS 6 Xposition Yposition Zposition Xrotation Zrotation Yrotation
	JOINT abdomen
	{
		OFFSET 0.000000 3.402643 0.000000 
		CHANNELS 3 Xrotation Zrotation Yrotation
		JOINT chest
		{
			OFFSET 0.000000 8.438565 -0.680529 
			CHANNELS 3 Xrotation Zrotation Yrotation
			JOINT neck
			{
				OFFSET 0.000000 10.207942 -0.272212 
				CHANNELS 3 Xrotation Zrotation Yrotation
				JOINT head
				{
					OFFSET 0.000000 3.130431 0.000000 
					CHANNELS 3 Xrotation Zrotation Yrotation
					End Site
					{
						OFFSET 0.000000 3.130435 0.000000 
					}
				}
			}
			JOINT lCollar
			{
				OFFSET 3.470700 6.669187 -0.816635 
				CHANNELS 3 Yrotation Zrotation Xrotation
				JOINT lShldr
				{
					OFFSET 3.198488 0.000000 0.000000 
					CHANNELS 3 Zrotation Yrotation Xrotation
					JOINT lForeArm
					{
						OFFSET 10.139888 0.000000 0.000000 
						CHANNELS 3 Yrotation Zrotation Xrotation
						JOINT lHand
						{
							OFFSET 8.370511 0.000000 0.000000 
							CHANNELS 3 Zrotation Yrotation Xrotation
							End Site
							{
								OFFSET 4.083176 0.000000 0.000000 
							}
						}
					}
				}
			}
			JOINT rCollar
			{
				OFFSET -3.470700 6.669187 -0.816635 
				CHANNELS 3 Yrotation Zrotation Xrotation
				JOINT rShldr
				{
					OFFSET -3.198488 0.000000 0.000000 
					CHANNELS 3 Zrotation Yrotation Xrotation
					JOINT rForeArm
					{
						OFFSET -10.139888 0.000000 0.000000 
						CHANNELS 3 Yrotation Zrotation Xrotation
						JOINT rHand
						{
							OFFSET -8.370511 0.000000 0.000000 
							CHANNELS 3 Zrotation Yrotation Xrotation
							End Site
							{
								OFFSET -4.083176 0.000000 0.000000 
							}
						}
					}
				}
			}
		}
	}
	JOINT lThigh
	{
		OFFSET 5.308129 -1.633274 1.361059 
		CHANNELS 3 Xrotation Zrotation Yrotation
		JOINT lShin
		{
			OFFSET -2.041588 -20.007561 0.000000 
			CHANNELS 3 Xrotation Zrotation Yrotation
			JOINT lFoot
			{
				OFFSET 0.000000 -19.190928 -1.224953 
				CHANNELS 3 Xrotation Yrotation Zrotation
				End Site
				{
					OFFSET 0.000000 -2.449906 4.627600 
				}
			}
		}
	}
	JOINT rThigh
	{
		OFFSET -5.308129 -1.633274 1.361059 
		CHANNELS 3 Xrotation Zrotation Yrotation
		JOINT rShin
		{
			OFFSET 2.041588 -20.007561 0.000000 
			CHANNELS 3 Xrotation Zrotation Yrotation
			JOINT rFoot
			{
				OFFSET 0.000000 -19.190928 -1.224953 
				CHANNELS 3 Xrotation Yrotation Zrotation
				End Site
				{
					OFFSET 0.000000 -2.449906 4.627600 
				}
			}
		}
	}
}
MOTION
Frames: 17
Frame Time: 0.016667
16.318296 48.644470 -16.677355 -4.228516 -0.878906 0.585938 0.000000 0.000000 0.000000 5.097657 -0.527344 0.302644 -6.855469 -0.019531 2.294919 8.437500 -0.888672 4.560396 7.597656 -5.917969 1.494141 -2.968750 -6.542968 -4.756970 1.220703 -0.371094 2.412173 7.041016 2.050781 -7.509415 -7.431640 5.937500 1.278287 3.359375 4.775391 -7.021484 -3.867188 -0.107422 2.148437 -8.847655 3.808594 6.475258 7.341500 9.812518 4.281831 3.376454 -3.562747 -0.530049 1.746551 -0.486360 0.935113 9.940006 -4.912016 -7.163045 2.358994 3.673896 0.099115 1.204969 1.102696 -5.389953 
16.283264 48.644470 -16.678816 -4.228516 -0.878906 0.761719 0.000000 0.000000 0.000000 4.921875 -0.527344 0.126953 -6.855469 -0.019531 2.294919 8.613282 -1.064453 4.560365 7.597656 -5.917969 1.494141 -2.968750 -6.542968 -4.756970 1.220703 -0.371094 2.412173 7.041016 2.050781 -7.509415 -7.431640 5.937500 1.278287 3.359375 4.951172 -7.021485 -3.867188 -0.107422 2.148437 -9.042969 3.964844 6.640624 7.341499 9.812516 4.281831 3.376454 -3.562747 -0.530049 1.767401 -0.464272 0.932733 9.858781 -4.715378 -7.134934 2.245272 3.767213 0.091065 1.115782 1.234582 -5.165336 
16.249695 48.644470 -16.683197 -4.228516 -0.878906 0.761719 0.000000 0.000000 0.000000 4.921875 -0.527344 0.126953 -6.855469 -0.019531 2.294919 8.613282 -1.064453 4.560365 7.597656 -5.917969 1.494141 -2.968750 -6.542968 -4.756970 1.044922 -0.361328 2.412171 7.031250 2.226563 -7.509766 -7.431640 5.937500 1.278287 3.173828 4.951172 -6.835093 -4.042969 -0.107422 2.138672 -9.218750 3.955078 6.807316 7.252561 9.889830 4.112252 3.295094 -3.657661 -0.164616 1.877263 -0.839780 0.994735 9.855909 -4.713495 -6.976586 2.253396 3.762316 0.101499 1.060886 1.283655 -5.511861 
16.219044 48.644470 -16.689034 -4.052734 -1.054688 0.771484 0.000000 0.000000 0.000000 4.921875 -0.527344 0.126953 -6.855469 -0.195313 2.314420 8.613282 -1.064453 4.560365 7.597656 -5.917969 1.494141 -2.968750 -6.542968 -4.756970 1.044922 -0.361328 2.412171 7.031250 2.226563 -7.333983 -7.607422 5.937500 1.298828 3.173828 4.951172 -6.835093 -4.042969 -0.107422 2.138672 -9.218750 3.955078 7.158878 7.152869 10.150661 3.956410 3.283779 -3.654697 -0.163892 1.906788 -0.623138 0.875690 9.922656 -4.567014 -6.932398 2.029063 3.677180 0.085625 1.283515 0.957306 -5.432060 
16.189852 48.644470 -16.693411 -4.052734 -1.054688 0.771484 0.000000 0.000000 0.000000 4.921875 -0.527344 0.126953 -6.855469 -0.195313 2.314420 8.613282 -1.064453 4.560365 7.597656 -5.917969 1.494141 -2.792969 -6.542969 -4.747204 1.044922 -0.361328 2.412171 7.041016 2.050781 -7.157853 -7.607422 5.937500 1.298828 3.173828 4.951172 -6.835093 -4.042969 -0.107422 2.138672 -9.394530 3.945313 7.324892 7.155898 10.144587 4.143477 3.283479 -3.654967 -0.163893 2.093797 -0.625098 0.875445 9.927545 -4.569110 -6.744250 2.029440 3.677032 0.066109 1.127491 1.100853 -5.578560 
16.162119 48.645931 -16.697790 -4.052734 -1.054688 0.771484 0.000000 0.000000 0.000000 4.921875 -0.351563 0.136719 -6.855469 -0.195313 2.314420 8.613282 -1.064453 4.560365 7.597656 -5.917969 1.494141 -2.802734 -6.542969 -4.921875 1.044922 -0.361328 2.412171 7.216797 2.060547 -7.167968 -7.783204 6.103516 1.337891 2.998047 5.126954 -6.826172 -4.042969 -0.107422 2.138672 -9.550780 3.759766 7.490877 6.938915 10.083032 4.310083 3.376453 -3.562747 -0.530049 1.933266 -0.471038 0.930454 9.927545 -4.569110 -6.744250 2.029440 3.677032 0.066109 1.106956 1.139413 -5.762327 
16.135849 48.645931 -16.700710 -4.052734 -1.054688 0.947266 0.000000 0.000000 0.000000 4.921875 -0.351563 0.136719 -6.855469 -0.195313 2.314420 8.789063 -1.230469 4.550572 7.597656 -5.917969 1.494141 -2.802734 -6.542969 -4.921875 1.044922 -0.361328 2.412171 7.216797 2.060547 -6.992188 -7.783204 6.103516 1.337891 2.832031 5.126953 -6.992188 -3.867188 -0.107422 2.148437 -9.541016 3.583984 7.666626 6.956348 10.286062 4.138587 3.382762 -3.560394 -0.325765 1.916998 -0.485883 0.551508 9.814235 -4.414245 -6.901489 2.275919 3.953109 0.084383 1.285300 1.259899 -5.508593 
16.111034 48.647388 -16.702169 -3.876953 -1.054688 0.947266 0.000000 0.000000 0.000000 4.921875 -0.351563 0.136719 -6.679688 -0.195313 2.314453 8.789063 -1.230469 4.726354 7.597656 -5.917969 1.494141 -2.802734 -6.718750 -4.921875 1.044922 -0.361328 2.412171 7.226562 1.894531 -6.992188 -7.783204 6.103516 1.337891 2.656250 5.126953 -7.158204 -3.691406 -0.107422 2.148455 -9.716797 3.574219 7.656250 6.722757 10.227497 3.977595 3.376921 -3.582191 -0.169245 1.925884 -0.496114 0.558232 9.815813 -4.420631 -7.081040 2.282618 3.937923 0.094137 1.131482 1.435055 -5.653463 
16.086218 48.648846 -16.702169 -3.876953 -1.054688 0.947266 0.000000 0.000000 0.000000 4.921875 -0.351563 0.136719 -6.679688 -0.195313 2.314453 8.789063 -1.230469 4.726354 7.597656 -5.917969 1.494141 -2.802734 -6.718750 -4.921875 1.220703 -0.371094 2.412173 7.050781 1.875000 -6.982422 -7.783204 6.103516 1.337891 2.656250 5.126953 -7.158204 -3.691406 -0.107422 2.148455 -9.716797 3.574219 7.832031 6.722757 10.227497 3.977594 3.376921 -3.582192 -0.169245 1.916196 -0.494959 0.558621 9.815813 -4.420631 -7.081040 2.282617 3.937923 0.094137 1.131486 1.435056 -5.653463 
16.059948 48.648846 -16.702169 -3.876953 -1.054688 0.947266 0.000000 0.000000 0.000000 4.921875 -0.351563 -0.039063 -6.679688 -0.195313 2.314453 8.789063 -1.230469 4.726354 7.597656 -5.917969 1.494141 -2.626953 -6.718750 -4.912109 1.220703 -0.371094 2.412173 7.050781 1.875000 -6.806641 -7.783204 6.103516 1.337891 2.490234 5.302734 -7.323317 -3.691406 -0.107422 2.148455 -9.716797 3.574219 7.832031 6.726511 10.232279 4.155997 3.376260 -3.582640 -0.179003 1.919124 -0.474629 0.565927 9.815813 -4.420631 -7.081040 2.282618 3.937923 0.094137 1.062019 1.357815 -5.682323 
16.032215 48.650307 -16.702169 -3.876953 -1.054688 0.947266 0.000000 0.000000 0.000000 4.921875 -0.351563 -0.039063 -6.679688 -0.195313 2.314453 8.964844 -1.230469 4.726563 7.597656 -6.093750 1.513672 -2.617188 -6.718750 -4.736328 1.220703 -0.371094 2.412173 7.050781 1.875000 -6.806641 -7.783204 6.103516 1.337891 2.490234 5.126954 -7.333110 -3.515625 -0.117188 2.158203 -9.707031 3.398438 7.832032 6.726511 10.232279 4.155997 3.376260 -3.582640 -0.179003 2.094304 -0.489282 0.561075 9.534474 -4.197331 -7.055417 2.271730 3.761990 0.249254 1.108484 1.399319 -5.656411 
16.004484 48.650307 -16.702169 -3.876953 -1.054688 0.947266 0.000000 0.000000 0.000000 4.921875 -0.351563 -0.039063 -6.679688 -0.195313 2.314453 8.964844 -1.230469 4.550782 7.421875 -6.103516 1.495179 -2.617188 -6.542969 -4.737439 1.044922 -0.361328 2.412171 7.041016 2.050781 -6.806290 -7.783204 6.103516 1.337891 2.656250 5.126953 -7.158204 -3.515625 -0.117188 2.158203 -9.882813 3.378906 7.832032 6.607513 10.288675 4.329368 3.382815 -3.559817 -0.355031 2.085846 -0.475048 0.555773 9.534475 -4.197330 -7.055417 2.271730 3.761993 0.249253 1.108484 1.399319 -5.656411 
15.976749 48.650307 -16.705088 -3.701171 -1.054688 0.937320 0.000000 0.000000 0.000000 4.921875 -0.527344 0.126953 -6.679688 -0.195313 2.314453 9.140626 -1.230469 4.550572 7.421875 -6.103516 1.495179 -2.451172 -6.542969 -4.727675 0.869141 -0.361328 2.421937 7.187500 2.412109 -6.815994 -7.607422 6.113281 1.328125 2.656250 4.951172 -6.815564 -3.339844 -0.117188 2.158223 -10.058594 3.369141 7.822842 6.611051 10.293224 4.507765 3.385516 -3.570920 -0.345419 2.087706 -0.522392 0.352073 9.336511 -4.176443 -7.068587 2.382344 3.669435 0.256634 0.879177 1.326734 -5.507762 
15.953396 48.647388 -16.712387 -3.701171 -1.054688 0.937320 0.000000 0.000000 0.000000 4.921875 -0.527344 0.126953 -6.679688 -0.195313 2.314453 9.140625 -1.054688 4.550601 7.246094 -6.279296 1.504974 -2.451172 -6.367188 -4.902344 0.341797 -0.351563 2.431700 7.851562 2.988281 -6.855468 -7.607422 6.113281 1.328125 2.998047 4.775391 -6.474609 -2.812500 -0.126953 2.177734 -10.400391 3.173828 7.627495 6.371460 10.217937 4.494332 3.578466 -3.618654 -0.174150 2.099234 -0.393349 0.222024 9.341602 -4.178550 -6.890423 2.597459 3.748449 0.272028 0.917954 1.490847 -5.811176 
15.935883 48.644470 -16.729900 -3.525391 -1.054698 0.937311 0.000000 0.000000 0.000000 4.921875 -0.703125 0.283203 -6.679688 -0.195313 2.314453 8.964845 -1.054688 4.550601 7.246094 -6.435547 1.700313 -2.451172 -6.191407 -5.079178 -0.712891 -0.332031 2.451172 8.867188 3.583984 -6.728516 -7.607422 6.113281 1.328125 3.164063 4.423829 -6.307840 -2.109375 -0.146484 2.197266 -11.250001 2.753906 7.587891 6.258760 10.282976 4.855838 3.804798 -3.649673 -0.365878 2.056294 -0.561349 0.161648 9.101420 -4.238435 -6.540780 2.731472 3.870669 0.126254 0.854902 1.355416 -5.674272 
15.928582 48.640091 -16.757633 -3.525390 -0.878906 0.751803 0.000000 0.000000 0.000000 4.921875 -0.703125 0.458984 -6.679687 -0.214844 2.138635 8.789063 -1.230469 4.374791 7.255859 -6.777344 1.748047 -2.636719 -6.015625 -5.440476 -2.304688 -0.312500 2.304688 10.566406 4.404297 -6.464844 -7.607422 6.289063 1.347656 3.515625 4.072266 -6.152344 -0.878906 -0.166016 2.226563 -12.646484 2.480469 7.519530 5.902605 10.451740 5.225718 4.339117 -3.833211 -0.416752 2.069695 -0.487959 0.011653 8.446628 -4.326666 -6.593662 3.143056 3.784609 0.496397 0.738176 1.424598 -5.461835 
15.931501 48.634251 -16.802881 -3.349610 -0.878906 0.576172 0.000000 0.000000 0.000000 5.097656 -0.703125 0.810547 -7.031250 -0.214844 2.148401 8.437499 -1.240234 4.384766 7.265625 -7.304688 1.806641 -2.646484 -5.664063 -5.948229 -4.589844 -0.283203 2.168019 13.144531 5.117188 -5.897565 -7.792969 6.601562 1.582031 3.876953 3.554688 -6.522830 1.054688 -0.205077 2.275433 -14.550780 1.992188 7.607763 5.171252 10.207718 5.191222 4.977689 -3.612224 -0.456550 1.862799 -0.602781 0.135462 7.907166 -4.510393 -6.091913 3.647614 3.783417 0.181179 0.519223 1.022197 -5.425635 
